<svg xmlns="http://www.w3.org/2000/svg" xml:space="preserve" width="512" height="512">
  <path fill="#ffecb2" d="M428.16 97.885v316.24c0 15.26-12.37 27.63-27.63 27.63H147.72c-15.26 0-27.64-12.37-27.64-27.63v-8.609h22.65c7.51 0 13.6-6.091 13.6-13.591 0-7.51-6.09-13.59-13.6-13.59h-22.65v-27.189h22.65c7.51 0 13.6-6.08 13.6-13.59 0-7.511-6.09-13.591-13.6-13.591h-22.65v-27.18h22.65c7.51 0 13.6-6.09 13.6-13.6 0-7.5-6.09-13.591-13.6-13.591h-22.65v-27.18h22.65c7.51 0 13.6-6.09 13.6-13.59 0-7.51-6.09-13.6-13.6-13.6h-22.65v-27.18h22.65c7.51 0 13.6-6.09 13.6-13.59 0-7.51-6.09-13.59-13.6-13.59h-22.65v-27.19h22.65c7.51 0 13.6-6.08 13.6-13.59s-6.09-13.59-13.6-13.59h-22.65v-8.61c0-15.26 12.38-27.64 27.64-27.64h252.81c15.26.001 27.63 12.381 27.63 27.641z"/>
  <g fill="#e5d098">
    <path d="M128.747 146.591h22.65c7.51 0 13.6-6.08 13.6-13.59 0-5.772-3.604-10.688-8.68-12.659-.138 7.39-6.164 13.333-13.587 13.333h-22.65v27.19h8.667v-14.274zM128.747 255.331h22.65c7.51 0 13.6-6.09 13.6-13.59 0-5.772-3.604-10.693-8.679-12.667-.134 7.385-6.161 13.342-13.587 13.342h-22.65v27.18h8.667v-14.265zM156.387 83.161h252.811c6.73 0 12.896 2.411 17.688 6.412-3.528-11.2-13.992-19.327-26.355-19.327H147.72c-15.26 0-27.64 12.38-27.64 27.64v8.61h9.002c2.07-13.217 13.509-23.335 27.305-23.335zM128.747 200.961h22.65c7.51 0 13.6-6.09 13.6-13.59 0-5.772-3.604-10.688-8.68-12.659-.138 7.38-6.164 13.333-13.587 13.333h-22.65v27.18h8.667v-14.264zM128.747 427.04v-8.609h22.65c7.51 0 13.6-6.09 13.6-13.59 0-5.772-3.604-10.688-8.68-12.659-.139 7.381-6.164 13.334-13.587 13.334h-22.65v8.609c0 8.525 3.866 16.146 9.938 21.214a27.579 27.579 0 0 1-1.271-8.299zM128.747 309.7h22.65c7.51 0 13.6-6.09 13.6-13.6 0-5.765-3.604-10.685-8.68-12.657-.139 7.39-6.164 13.342-13.587 13.342h-22.65v27.18h8.667V309.7zM128.747 364.062h22.65c7.51 0 13.6-6.08 13.6-13.59 0-5.773-3.604-10.689-8.679-12.66-.138 7.39-6.164 13.334-13.587 13.334h-22.65v27.189h8.667v-14.273z"/>
  </g>
  <path fill="#415a6b" d="M156.33 391.925c0 7.5-6.09 13.591-13.6 13.591h-45.3c-7.51 0-13.59-6.091-13.59-13.591 0-7.51 6.08-13.59 13.59-13.59h45.3c7.51 0 13.6 6.08 13.6 13.59zm-13.6-67.96h-45.3c-7.51 0-13.59 6.08-13.59 13.591 0 7.51 6.08 13.59 13.59 13.59h45.3c7.51 0 13.6-6.08 13.6-13.59 0-7.511-6.09-13.591-13.6-13.591zm0-54.37h-45.3c-7.51 0-13.59 6.091-13.59 13.591 0 7.51 6.08 13.6 13.59 13.6h45.3c7.51 0 13.6-6.09 13.6-13.6 0-7.5-6.09-13.591-13.6-13.591zm0-54.37h-45.3c-7.51 0-13.59 6.09-13.59 13.6 0 7.5 6.08 13.59 13.59 13.59h45.3c7.51 0 13.6-6.09 13.6-13.59 0-7.51-6.09-13.6-13.6-13.6zm0-54.36h-45.3c-7.51 0-13.59 6.08-13.59 13.59 0 7.5 6.08 13.59 13.59 13.59h45.3c7.51 0 13.6-6.09 13.6-13.59 0-7.51-6.09-13.59-13.6-13.59zm-45.3-27.19h45.3c7.51 0 13.6-6.08 13.6-13.59s-6.09-13.59-13.6-13.59h-45.3c-7.51 0-13.59 6.08-13.59 13.59s6.08 13.59 13.59 13.59z"/>
  <g fill="#304754">
    <path d="M99.763 171.198h45.3c4.552 0 8.571 2.241 11.04 5.673.141-.786.227-1.59.227-2.416 0-7.51-6.09-13.59-13.6-13.59h-45.3c-7.51 0-13.59 6.08-13.59 13.59 0 2.956.955 5.685 2.56 7.917 1.14-6.354 6.679-11.174 13.363-11.174zM99.763 225.558h45.3c4.552 0 8.572 2.246 11.041 5.68.141-.785.227-1.588.227-2.413 0-7.51-6.09-13.6-13.6-13.6H97.43c-7.51 0-13.59 6.09-13.59 13.6 0 2.956.955 5.685 2.56 7.917 1.14-6.356 6.679-11.184 13.363-11.184zM99.763 116.828h45.3c4.552 0 8.571 2.242 11.04 5.673.141-.786.227-1.59.227-2.417 0-7.51-6.09-13.59-13.6-13.59h-45.3c-7.51 0-13.59 6.08-13.59 13.59 0 2.96.955 5.689 2.559 7.92 1.139-6.354 6.679-11.176 13.364-11.176zM99.763 388.668h45.3c4.552 0 8.571 2.241 11.04 5.673.141-.785.227-1.59.227-2.416 0-7.51-6.09-13.59-13.6-13.59h-45.3c-7.51 0-13.59 6.08-13.59 13.59 0 2.956.955 5.686 2.56 7.917 1.14-6.354 6.679-11.174 13.363-11.174zM99.763 334.298h45.3c4.552 0 8.572 2.241 11.041 5.674.141-.785.227-1.59.227-2.416 0-7.511-6.09-13.591-13.6-13.591H97.43c-7.51 0-13.59 6.08-13.59 13.591 0 2.96.955 5.689 2.559 7.92 1.139-6.356 6.679-11.178 13.364-11.178zM99.763 279.928h45.3c4.552 0 8.571 2.245 11.04 5.678.142-.787.228-1.593.228-2.42 0-7.5-6.09-13.591-13.6-13.591H97.43c-7.51 0-13.59 6.091-13.59 13.591 0 2.96.955 5.69 2.559 7.923 1.139-6.35 6.679-11.181 13.364-11.181z"/>
  </g>
  <path fill="#fff" d="M391.92 142.735v54.37H192.57v-90.61h199.35z"/>
  <path fill="#eae8e8" d="M202.82 116.995h189.1v-10.5H192.57v90.61h10.25z"/>
  <path fill="#ef3e5c" d="M312.61 233.355c13.779 0 24.939 11.37 24.939 25.38 0 25.39-24.939 39.84-49.85 65.229-24.91-25.39-49.82-39.84-49.82-65.229 0-14.01 11.16-25.38 24.91-25.38 12.45 0 18.68 6.34 24.91 19.04 6.231-12.7 12.461-19.04 24.911-19.04z"/>
  <path fill="#d32f53" d="M253.213 263.519c0-13.839 10.891-25.094 24.408-25.367-3.901-3.197-8.582-4.796-14.831-4.796-13.75 0-24.91 11.37-24.91 25.38 0 25.39 24.91 39.84 49.82 65.229a282.974 282.974 0 0 1 5.146-5.101c-21.087-19.672-39.633-33.439-39.633-55.345z"/>
  <path fill="#ef3e5c" d="M391.92 365.205H192.57a5 5 0 1 1 0-10h199.35c2.762 0 5 2.238 5 5s-2.238 5-5 5zM391.92 401.455H192.57a5 5 0 1 1 0-10h199.35c2.762 0 5 2.238 5 5s-2.238 5-5 5z"/>
  <path fill="#eae8e8" d="M342.55 147.735H197.57a5 5 0 0 1 0-10h144.98a5 5 0 1 1 0 10z"/>
</svg>
